<?xml version="1.0" encoding="utf-8"?>
<!-- Generator: Adobe Illustrator 18.1.1, SVG Export Plug-In . SVG Version: 6.00 Build 0)  -->
<svg version="1.1" id="cat" xmlns="http://www.w3.org/2000/svg" xmlns:xlink="http://www.w3.org/1999/xlink" x="0px" y="0px"
	 viewBox="24 -31 95 111" enable-background="new 24 -31 95 111" xml:space="preserve">
<path fill="none" stroke="#FDD46B" stroke-miterlimit="10" d="M71.7-12.4c0-4.2-2.5-7.6-5.7-7.6"/>
<g>
	<polygon fill="#564F4D" points="80,59.3 76.8,61.5 79,64.7 82.9,62 	"/>
	<path fill="#443E3C" d="M79.5,69.8l7.3,0.1c0.7,0,1.3,0.4,1.8,1l1,1.4c0.2,0.2,0,0.6-0.2,0.6l-10.1-0.2c-0.2,0-0.3-0.2-0.3-0.4
		l0.2-2.2C79.2,70,79.4,69.8,79.5,69.8z"/>
	<path fill="#73D7FF" d="M84.1,61.9l-4-0.1c-0.8,0-1.4,0.7-1.4,1.5l-0.1,4.5c0,0.9,0.6,1.6,1.4,1.6l4.8,0.1c0.9,0,1.5-0.9,1.4-1.9
		l-0.7-4.5C85.3,62.5,84.8,61.9,84.1,61.9z"/>
</g>
<g>
	<polygon fill="#564F4D" points="66.2,63.1 63.3,60.5 60.7,63.4 64.2,66.5 	"/>
	<g>
		<path fill="#443E3C" d="M56.9,63.4l0.4,7.4c0,0.7-0.3,1.3-1,1.7l-1.6,0.9c-0.3,0.2-0.8,0-0.8-0.3L53.4,63c0-0.2,0.2-0.3,0.5-0.3
			l2.6,0.4C56.7,63.1,56.9,63.3,56.9,63.4z"/>
		<path fill="#73D7FF" d="M64.1,67.9l-0.6-3.8c-0.1-0.7-0.9-1.3-1.9-1.3l-4.8-0.1c-0.9,0-1.6,0.5-1.5,1.2l0.7,4.5
			c0.1,0.8,1.2,1.4,2.2,1.3l4.6-0.7C63.7,69,64.2,68.5,64.1,67.9z"/>
	</g>
</g>
<path fill="#73D7FF" d="M84.9,41.9l-5.7-2.3c-0.3-0.1-0.5-0.4-0.4-0.7l0-2.1c0-0.4,0.4-0.7,0.8-0.7l6.6,0.8c0.4,0.1,0.7,0.5,0.6,0.8
	l-0.9,3.6C85.8,41.8,85.3,42,84.9,41.9z"/>
<path fill="#FDD46B" d="M87.4,42.6l2.9,1.7c0.7,0.4,1.6,0.1,1.9-0.7l1.3-3.6c0.3-0.7-0.2-1.6-1-1.7l-3.7-0.7c-0.7-0.1-1.4,0.3-1.5,1
	l-0.6,2.6C86.6,41.7,86.9,42.3,87.4,42.6z"/>
<path fill="#1B1464" d="M94.1,40.4c0-0.1,0.1-0.2,0.2-0.3l1.9-2.2c0.2-0.2,0.5-0.1,0.6,0.2c0,0.3,0.1,0.7,0,1.2
	c-0.1,0.6,0.4,1.1,0.9,1.1l2.5-0.6c0.4-0.1,0.9-0.1,1.4-0.1c1.1,0.2,1.3,1.5,1.2,2.2c-0.1,1.2-3.5,4-9,3.2c-0.6-0.1-0.9-0.7-0.8-1.2
	L94.1,40.4z"/>
<path fill="#73D7FF" d="M80.2,61.3l-19,1.9c-1.7,0.2-3.1-1-3.1-2.6l0.8-8.6c0-1.6,1.4-3,3.1-3.1l17.8-1.1c1.6-0.1,2.8,1,2.8,2.6
	l0.5,7.8C83,59.8,81.7,61.2,80.2,61.3z"/>
<path fill="#564F4D" d="M64.1,49.5l-3.3,0.2c-2,0.1-3.7-1.3-3.7-3.3v-3.2c0-2,1.7-3.6,3.7-3.7l3.3-0.2c2-0.1,3.6,1.4,3.6,3.3v3.1
	C67.8,47.7,66.1,49.4,64.1,49.5z"/>
<path fill="#564F4D" d="M73.7,49.2l-4.9,0.4c-1.2,0.1-2.1-0.9-2.1-2.3v-5.7c0-1.3,1-2.5,2.1-2.5l4.9-0.3c1.1-0.1,2.1,1,2.1,2.3v5.6
	C75.8,47.9,74.9,49.1,73.7,49.2z"/>
<path fill="#564F4D" d="M80.7,48.8l-2,0.1c-2.1,0.2-3.9-1.6-3.9-3.8V43c0-2.3,1.7-4.2,3.9-4.3l2-0.1c2.1-0.1,3.8,1.6,3.8,3.8v2.1
	C84.5,46.7,82.8,48.6,80.7,48.8z"/>
<path fill="none" stroke="#FDD46B" stroke-width="5" stroke-miterlimit="10" d="M70-12.4"/>
<path fill="#73D7FF" d="M104.6,37.9l-6.3,0.9C83.2,41,67,42,49.5,41.8l-8-0.1C35.7,42,30.8,38,30.8,32.6L30.6-3.6
	c0-5.4,4.8-9.5,10.7-9.2l16.1-0.2c13.2,0.1,23.3,0.4,34.1,1.8l13,1.7c4.4,0.2,7.8,4.1,7.9,8.6l0.1,30.3
	C112.4,33.8,109,37.7,104.6,37.9z"/>
<path fill="#443E3C" d="M101.8,36.3l-5.6,0.8c-13.5,1.9-28,2.8-43.4,2.5l-7-0.1c-5.1,0.3-9.4-3.5-9.4-8.4L36.2-2.1
	c0-4.9,4.2-8.7,9.3-8.5l14.1-0.3c11.7,0,20.6,0.3,30.3,1.5L101.6-8c3.9,0.2,7.1,3.7,7.1,7.9l0.1,28.3
	C108.8,32.5,105.7,36.1,101.8,36.3z"/>
<path fill="#FFFFFF" d="M32.2,0.6c0,0.5,0.1,0.9,0.2,0.9c0.1,0,0.2-0.4,0.2-1c0-0.5-0.1-0.9-0.2-0.9C32.2-0.4,32.2,0.1,32.2,0.6z"/>
<path fill="#FFFFFF" d="M70,23.5c0,0,5.5,8.2,9.6,0"/>
<ellipse fill="#FF9FC2" cx="53.9" cy="21.2" rx="7.2" ry="2.3"/>
<ellipse fill="#FF9FC2" cx="93.9" cy="20.3" rx="5.6" ry="1.8"/>
<g>
	<path fill="#FFF383" d="M79,51.6c0.3,4.4-3.8,9-8.1,8.4c-3.3-0.5-5.8-3.9-5.7-7.3c0.1-4.5,4.8-8.4,8.9-7.4
		C76.9,46,78.8,48.9,79,51.6z"/>
	<path fill="#3D2F27" d="M78.3,52.3c0,2.8-1.9,4.5-2.2,4.8c-1.6,1.4-4.5,2.6-7,1.2c-2.9-1.6-2.7-5.4-2.7-5.6
		c0.2-3.2,2.9-6.1,5.8-6.3c1.9-0.2,3.4,0.8,3.6,1C78.3,49,78.3,51.9,78.3,52.3z"/>
	<path fill="#FDD46B" d="M76,51.8c0.4,2.2-1.4,4.5-3.6,4.3C70.5,56,68.9,54,69.2,52c0.2-1.6,1.6-2.9,3.2-3
		C74.1,48.8,75.7,50.2,76,51.8z"/>
	<ellipse fill="#73D7FF" cx="72.7" cy="52.4" rx="2.5" ry="2.6"/>
</g>
<path fill="#FDD46B" d="M66.6-20.6c0.1,1.5-1.3,3.1-2.8,2.9c-1.1-0.2-2-1.4-2-2.5c0-1.6,1.7-2.9,3.1-2.5
	C65.8-22.6,66.5-21.6,66.6-20.6z"/>
<path fill="#FFFFFF" d="M66-20.7c0.2,1.2-0.8,2.4-2,2.4c-1-0.1-1.9-1.1-1.7-2.2c0.1-0.9,0.8-1.6,1.7-1.7C65-22.3,65.8-21.6,66-20.7z
	"/>
<ellipse fill="#73D7FF" cx="64.2" cy="-20.3" rx="1.1" ry="1.1"/>
<path fill="#73D7FF" d="M68.3,44l-6.2-0.2c-0.3,0-0.6,0.2-0.7,0.4l-0.8,1.9c-0.2,0.4,0.1,0.8,0.5,0.9l6.3,1.9
	c0.4,0.1,0.8-0.2,0.9-0.5l0.7-3.7C69,44.4,68.7,44,68.3,44z"/>
<path fill="#FDD46B" d="M70.8,44.3l3.3-0.3c0.8-0.1,1.5,0.6,1.4,1.4l-0.3,3.8c-0.1,0.8-0.8,1.4-1.6,1.2l-3.6-0.8
	c-0.7-0.2-1.1-0.8-1-1.5l0.6-2.6C69.8,44.8,70.2,44.3,70.8,44.3z"/>
<path fill="#1B1464" d="M76.5,45.9c0-0.1,0.1-0.2,0.1-0.3l1.5-2.4c0.1-0.2,0.5-0.2,0.6,0c0.1,0.2,0.2,0.6,0.2,1.1
	c0,0.6,0.6,0.9,1.2,0.8l2.4-1c0.4-0.2,0.9-0.3,1.4-0.3c1.2,0,1.6,1.1,1.7,1.8c0.1,1.2-2.8,4.4-8.6,4.7c-0.6,0-1.1-0.5-1-1L76.5,45.9
	z"/>
<path fill="#FFFFFF" d="M32.5-6c-1.1,2.5-0.2,5.1-0.1,5.1c0.1,0-0.3-1.7,0.4-3.9c0.3-1,0.7-1.7,0.8-1.9c0.9-1.6,2-2.3,2-2.3
	C35.4-9.1,33.5-8.1,32.5-6z"/>
<path fill="#FFFFFF" d="M60.1,51.6c-1.4,2,0.3,4.6,0.4,4.6c0.1,0-0.5-1.2-0.3-2.9c0.2-1.4,0.8-2.1,1-2.4c0.5-0.5,1-0.9,0.9-0.9
	C62.1,50,60.8,50.6,60.1,51.6z"/>
<path fill="#FFFFFF" d="M58.3,42.9c-0.5,0.7,0,1.8,0,1.8c0,0-0.2-0.7,0.1-1.4c0.1-0.3,0.3-0.5,0.4-0.6c0.3-0.3,0.6-0.4,0.6-0.4
	C59.4,42.3,58.6,42.4,58.3,42.9z"/>
<circle fill="#FFFFFF" cx="91" cy="14" r="1.9"/>
<circle fill="#FFFFFF" cx="58" cy="13.6" r="2.3"/>
</svg>
