<?xml version="1.0" encoding="utf-8"?>
<!-- Generator: Adobe Illustrator 18.1.1, SVG Export Plug-In . SVG Version: 6.00 Build 0)  -->
<svg version="1.1" id="cat" xmlns="http://www.w3.org/2000/svg" xmlns:xlink="http://www.w3.org/1999/xlink" x="0px" y="0px"
	 viewBox="24 -31 95 111" enable-background="new 24 -31 95 111" xml:space="preserve">
<g>
	<polygon fill="#564F4D" points="64.1,62.5 61.3,60.1 58.9,62.9 62.2,65.8 	"/>
	<g>
		<path fill="#443E3C" d="M55.2,62.9l0.4,7c0,0.7-0.3,1.3-1,1.7l-1.5,0.9c-0.3,0.2-0.7,0-0.7-0.3l-0.5-9.7c0-0.2,0.2-0.3,0.4-0.3
			l2.5,0.4C55.1,62.6,55.2,62.7,55.2,62.9z"/>
		<path fill="#73D7FF" d="M62.1,67.1l-0.6-3.6c-0.1-0.7-0.9-1.2-1.8-1.2l-4.5-0.1c-0.9,0-1.5,0.5-1.4,1.2l0.7,4.3
			c0.1,0.8,1.1,1.4,2.1,1.2l4.4-0.6C61.7,68.2,62.2,67.7,62.1,67.1z"/>
	</g>
</g>
<path fill="none" stroke="#FDD46B" stroke-miterlimit="10" d="M71.6-12.9c0-4.2-2.5-7.6-5.7-7.6"/>
<polygon fill="#564F4D" points="79.4,58.5 76.6,61.3 79.4,64.1 82.7,60.7 "/>
<path fill="#443E3C" d="M83.4,69.5l6.4-3.1c0.6-0.3,1.3-0.3,2,0.1l1.5,0.8c0.3,0.1,0.3,0.5,0.1,0.7l-8.9,4.4c-0.2,0.1-0.4,0-0.5-0.2
	l-0.8-2C83.2,69.7,83.3,69.5,83.4,69.5z"/>
<path fill="#73D7FF" d="M82.9,60.9l-3.1,1.6c-0.6,0.3-0.7,1.2-0.3,1.9l2.1,4c0.4,0.8,1.2,1.1,1.8,0.8l3.7-2c0.7-0.4,0.7-1.4,0.1-2.2
	l-2.8-3.6C84.1,60.9,83.4,60.7,82.9,60.9z"/>
<path fill="#73D7FF" d="M80,60.7l-19,1.9c-1.7,0.2-3.1-1-3.1-2.6l0.8-8.6c0-1.6,1.4-3,3.1-3.1l17.8-1.1c1.6-0.1,2.8,1,2.8,2.6
	l0.5,7.8C82.8,59.2,81.6,60.6,80,60.7z"/>
<path fill="#564F4D" d="M64,48.9l-3.3,0.2c-2,0.1-3.7-1.3-3.7-3.3v-3.2c0-2,1.7-3.6,3.7-3.7l3.3-0.2c2-0.1,3.6,1.4,3.6,3.3v3.1
	C67.6,47.1,66,48.8,64,48.9z"/>
<path fill="#564F4D" d="M73.5,48.6L68.6,49c-1.2,0.1-2.1-0.9-2.1-2.3V41c0-1.3,1-2.5,2.1-2.5l4.9-0.3c1.1-0.1,2.1,1,2.1,2.3V46
	C75.6,47.3,74.7,48.5,73.5,48.6z"/>
<path fill="#564F4D" d="M80.5,48.2l-2,0.1c-2.1,0.2-3.9-1.6-3.9-3.8v-2.1c0-2.3,1.7-4.2,3.9-4.3l2-0.1c2.1-0.1,3.8,1.6,3.8,3.8v2.1
	C84.3,46.1,82.6,48,80.5,48.2z"/>
<path fill="none" stroke="#FDD46B" stroke-width="5" stroke-miterlimit="10" d="M69.8-12.9"/>
<g>
	<path fill="#FFF383" d="M78.9,51c0.3,4.4-3.8,9-8.1,8.4c-3.3-0.5-5.8-3.9-5.7-7.3c0.1-4.5,4.8-8.4,8.9-7.4
		C76.7,45.5,78.6,48.3,78.9,51z"/>
	<path fill="#3D2F27" d="M78.2,51.7c0,2.8-1.9,4.5-2.2,4.8c-1.6,1.4-4.5,2.6-7,1.2c-2.9-1.6-2.7-5.4-2.7-5.6
		c0.2-3.2,2.9-6.1,5.8-6.3c1.9-0.2,3.4,0.8,3.6,1C78.1,48.4,78.2,51.3,78.2,51.7z"/>
	<path fill="#FDD46B" d="M75.8,51.2c0.4,2.2-1.4,4.5-3.6,4.3c-1.9-0.1-3.5-2.1-3.2-4.1c0.2-1.6,1.6-2.9,3.2-3
		C74,48.3,75.5,49.6,75.8,51.2z"/>
	<ellipse fill="#73D7FF" cx="72.6" cy="51.8" rx="2.5" ry="2.6"/>
</g>
<path fill="#FDD46B" d="M66.4-21.2c0.1,1.5-1.3,3.1-2.8,2.9c-1.1-0.2-2-1.4-2-2.5c0-1.6,1.7-2.9,3.1-2.5
	C65.6-23.2,66.3-22.2,66.4-21.2z"/>
<path fill="#FFFFFF" d="M65.8-21.3c0.2,1.2-0.8,2.4-2,2.4c-1-0.1-1.9-1.1-1.7-2.2c0.1-0.9,0.8-1.6,1.7-1.7
	C64.8-22.9,65.7-22.2,65.8-21.3z"/>
<ellipse fill="#73D7FF" cx="64" cy="-20.9" rx="1.1" ry="1.1"/>
<path fill="#FFFFFF" d="M59.9,51c-1.4,2,0.3,4.6,0.4,4.6c0.1,0-0.5-1.2-0.3-2.9c0.2-1.4,0.8-2.1,1-2.4c0.5-0.5,1-0.9,0.9-0.9
	C61.9,49.4,60.6,50,59.9,51z"/>
<path fill="#FFFFFF" d="M58.1,42.3c-0.5,0.7,0,1.8,0,1.8c0,0-0.2-0.7,0.1-1.4c0.1-0.3,0.3-0.5,0.4-0.6c0.3-0.3,0.6-0.4,0.6-0.4
	C59.2,41.7,58.5,41.8,58.1,42.3z"/>
<g>
	<path fill="#1B1464" d="M49.4,51.3c-0.1,0.6-0.4,1.4-1,2.1c-0.5,0.6-1.1,1.3-2.2,1.4c-0.3,0-1.1,0-1.7-0.5
		c-1.4-1.2-0.9-5.3,1.2-5.9c0.5-0.2,1.1-0.1,1.5,0C47.2,48.3,47.2,48.3,49.4,51.3z"/>
	<path fill="#73D7FF" d="M56.3,47.4l4.6-4.1c0.2-0.2,0.3-0.5,0.2-0.8l-0.7-2c-0.2-0.4-0.6-0.6-1-0.4l-5.9,2.9
		c-0.3,0.2-0.5,0.6-0.2,1l2,3.1C55.5,47.6,56,47.7,56.3,47.4z"/>
	<path fill="#FDD46B" d="M54.2,48.6L52,51.2c-0.5,0.6-1.5,0.6-2,0l-2.4-2.9c-0.5-0.6-0.3-1.5,0.3-1.9l3.2-1.9
		c0.6-0.4,1.4-0.2,1.8,0.4l1.4,2.3C54.6,47.6,54.6,48.2,54.2,48.6z"/>
</g>
<path fill="#73D7FF" d="M104.5,37.3l-6.3,0.9c-15.1,2.2-31.4,3.2-48.9,3l-8-0.1c-5.9,0.4-10.7-3.7-10.8-9.1L30.4-4.2
	c0-5.4,4.8-9.5,10.7-9.2l16.1-0.2c13.2,0.1,23.3,0.4,34.1,1.8l13,1.7c4.4,0.2,7.8,4.1,7.9,8.6l0.1,30.3
	C112.3,33.2,108.8,37.1,104.5,37.3z"/>
<path fill="#443E3C" d="M101.6,35.7L96,36.6c-13.5,1.9-28,2.8-43.4,2.5l-7-0.1c-5.1,0.3-9.4-3.5-9.4-8.4L36-2.7
	c0-4.9,4.2-8.7,9.3-8.5l14.1-0.3c11.7,0,20.6,0.3,30.3,1.5l11.7,1.5c3.9,0.2,7.1,3.7,7.1,7.9l0.1,28.3
	C108.7,31.9,105.5,35.5,101.6,35.7z"/>
<path fill="#FFFFFF" d="M32,0c0,0.5,0.1,0.9,0.2,0.9c0.1,0,0.2-0.4,0.2-1c0-0.5-0.1-0.9-0.2-0.9C32.1-0.9,32-0.5,32,0z"/>
<path fill="#FFFFFF" d="M32.4-6.6c-1.1,2.5-0.2,5.1-0.1,5.1c0.1,0-0.3-1.7,0.4-3.9c0.3-1,0.7-1.7,0.8-1.9c0.9-1.6,2-2.3,2-2.3
	C35.3-9.7,33.3-8.7,32.4-6.6z"/>
<path fill="#FDD46B" d="M84.1,48.3l0.7,3.3c0.2,0.8,1,1.2,1.8,0.9l3.5-1.4c0.7-0.3,1-1.2,0.6-1.9L88.8,46c-0.4-0.6-1.1-0.8-1.8-0.5
	l-2.3,1.3C84.2,47.1,84,47.7,84.1,48.3z"/>
<path fill="#1B1464" d="M86.8,53c-0.1,0.6-0.2,1.4,0,2.3c0.2,0.7,0.4,1.7,1.3,2.2c0.2,0.1,0.9,0.6,1.6,0.4c1.7-0.4,2.8-4.1,1.3-5.7
	c-0.4-0.4-0.9-0.6-1.2-0.7C89.7,51.5,89.7,51.5,86.8,53z"/>
<path fill="#73D7FF" d="M83.3,46.1l-1.8-5.9c-0.1-0.3,0-0.6,0.2-0.8l1.6-1.3c0.3-0.3,0.8-0.2,1,0.2l3.5,5.6c0.2,0.3,0.1,0.8-0.3,1
	l-3.4,1.6C83.9,46.7,83.5,46.5,83.3,46.1z"/>
<g>
	<g>
		<path fill="#FFAECF" d="M44,21.4c0.3-0.6,0.6-1.5,1.1-2.1c-0.4,0.1-0.7,0.3-1.1,0.4c-0.5-0.2-0.5-0.2,0,0.1
			c0.2,0.1,0.4,0.3,0.5,0.5c0.3,0.3,0.5,0.7,0.8,1c0.6,0.6,1.4,0.9,2.2,0.6c0.6-0.2,1.4-0.8,1.6-1.5c0.4-0.5,0.1-0.6-0.9-0.4
			c0,0.1,0.1,0.2,0.1,0.3c0.1,0.4,0.6,0.7,0.9,0.9c1.6,1.1,3.1-1.5,1.5-2.6c0.3,0.2,0,0-0.1-0.2c-0.1-0.2-0.3-0.5-0.5-0.7
			c-0.4-0.4-1-0.6-1.6-0.6c-0.6,0-1.2,0.4-1.6,0.8c-0.1,0.2-0.5,0.6-0.5,0.8c-0.2,0.2-0.1,0.3,0.3,0.2c0.5,0.1,0.5,0,0.2-0.3
			c-0.4-0.9-2-1.9-2.9-1.9c-1.5,0-2.1,2-2.7,3.1C40.5,21.6,43.1,23.1,44,21.4L44,21.4z"/>
	</g>
</g>
<g>
	<g>
		<path fill="#FFAECF" d="M93.8,17.4c-0.6,1.4-0.2,3,1.3,3.6c0.7,0.3,1.5,0.2,2.2-0.2c0.8-0.4,1-1.1,1.7-1.6
			c-0.4,0.1-0.7,0.3-1.1,0.4c-0.6,0,0.6,0.9,0.9,1.1c0.7,0.3,1.5,0.5,2.2,0.3c1.4-0.2,2.2-1.2,2.7-2.5c0.7-1.8-2.2-2.6-2.9-0.8
			c-0.3,0.7-0.8,0-1-0.3c-0.4-0.4-0.8-0.8-1.4-0.9c-0.5-0.1-1,0-1.4,0.3c-0.2,0.1-0.4,0.3-0.6,0.5c-0.6,0.7,0.4,0.6,0,1.5
			C97.2,17.2,94.6,15.7,93.8,17.4L93.8,17.4z"/>
	</g>
</g>
<path fill="#FFFFFF" d="M63,12.2l-3.7,0.1c-0.6,0-1.1-0.5-1.1-1.1l0-0.6c0-0.6,0.5-1.1,1.1-1.1l3.7-0.1c0.6,0,1.1,0.5,1.1,1.1l0,0.6
	C64.1,11.6,63.6,12.2,63,12.2z"/>
<path fill="#FFFFFF" d="M98.5,12.4l-3.7,0.1c-0.6,0-1.1-0.5-1.1-1.1l0-0.6c0-0.6,0.5-1.1,1.1-1.1l3.7-0.1c0.6,0,1.1,0.5,1.1,1.1
	l0,0.6C99.6,11.8,99.1,12.4,98.5,12.4z"/>
<rect x="55.3" y="3" transform="matrix(2.463028e-002 0.9997 -0.9997 2.463028e-002 64.1992 -46.0123)" fill="#FFFFFF" width="0.7" height="13.7"/>
<rect x="91.3" y="3.1" transform="matrix(1.934153e-002 0.9998 -0.9998 1.934153e-002 99.8534 -81.8276)" fill="#FFFFFF" width="0.7" height="13.7"/>
<path fill="none" stroke="#FFFDFD" stroke-miterlimit="10" d="M81.5,23.7c0,0-4.9,10.8-12.5,0.6"/>
</svg>
