<?xml version="1.0" encoding="utf-8"?>
<!-- Generator: Adobe Illustrator 18.1.1, SVG Export Plug-In . SVG Version: 6.00 Build 0)  -->
<svg version="1.1" id="图层_1" xmlns="http://www.w3.org/2000/svg" xmlns:xlink="http://www.w3.org/1999/xlink" x="0px" y="0px"
	 viewBox="0 0 81.3 47.3" enable-background="new 0 0 81.3 47.3" xml:space="preserve">
<g>
	<g>
		<path fill-rule="evenodd" clip-rule="evenodd" fill="#045AA1" d="M19.9,16.3h3.7v-1.8c0-0.6,0.5-1.1,1.1-1.1h1.7l-1.6-3.7
			l-0.3-0.7h0c-0.6,0-1.2-0.5-1.2-1.2c0-0.6,0.5-1.2,1.2-1.2c0.6,0,1.2,0.5,1.2,1.2c0,0.4-0.2,0.7-0.4,0.9l0.3,0.7l1.8,4h3.6
			l2.1-4.7c-0.2-0.2-0.4-0.5-0.4-0.9c0-0.6,0.5-1.2,1.2-1.2c0.6,0,1.2,0.5,1.2,1.2c0,0.6-0.5,1.2-1.2,1.2l0,0l-1.9,4.4H34
			c0.6,0,1.1,0.5,1.1,1.1v1.8H39c1.2,0,2.1,1,2.1,2.1v14.9c0,1.2-1,2.1-2.1,2.1H19.9c-1.2,0-2.1-1-2.1-2.1V18.4
			C17.8,17.2,18.7,16.3,19.9,16.3L19.9,16.3z M32.6,25c0.1,0.2,0.2,0.4,0.4,0.6c0.2,0.2,0.3,0.3,0.5,0.4c0.2,0.1,0.4,0.1,0.6,0.1
			c0.2,0,0.4,0,0.6-0.1c0.2-0.1,0.4-0.2,0.5-0.4c0.2-0.2,0.3-0.4,0.4-0.6c0.1-0.2,0.1-0.4,0.1-0.7c0-0.2,0-0.5-0.1-0.7
			c-0.1-0.2-0.2-0.4-0.4-0.6c-0.2-0.2-0.3-0.3-0.5-0.4c-0.2-0.1-0.4-0.1-0.6-0.1c-0.2,0-0.4,0-0.6,0.1c-0.2,0.1-0.4,0.2-0.5,0.4
			c-0.2,0.2-0.3,0.4-0.4,0.6c-0.1,0.2-0.1,0.4-0.1,0.7C32.5,24.5,32.5,24.7,32.6,25L32.6,25z M30.3,23.5c0,0.3-0.1,0.5-0.1,0.8
			c0,0.3,0,0.5,0.1,0.8c0,0.3,0.1,0.5,0.2,0.7c0.1,0.2,0.2,0.5,0.4,0.7c0.1,0.2,0.3,0.4,0.5,0.6c0.2,0.2,0.4,0.4,0.6,0.5
			c0.2,0.1,0.4,0.3,0.7,0.4c0.2,0.1,0.5,0.2,0.7,0.2c0.2,0,0.5,0.1,0.8,0.1c0.3,0,0.5,0,0.8-0.1c0.3-0.1,0.5-0.1,0.7-0.2
			c0.2-0.1,0.5-0.2,0.7-0.4c0.2-0.1,0.4-0.3,0.6-0.5c0.2-0.2,0.3-0.4,0.5-0.6c0.1-0.2,0.3-0.4,0.4-0.7c0.2-0.5,0.3-1,0.3-1.5
			c0-0.3,0-0.5-0.1-0.8c0-0.3-0.1-0.5-0.2-0.7c-0.1-0.2-0.2-0.5-0.4-0.7c-0.1-0.2-0.3-0.4-0.5-0.6c-0.2-0.2-0.4-0.4-0.6-0.5
			c-0.2-0.1-0.4-0.3-0.7-0.4c-0.2-0.1-0.5-0.2-0.7-0.2c-0.2,0-0.5-0.1-0.8-0.1c-0.3,0-0.5,0-0.8,0.1c-0.2,0-0.5,0.1-0.7,0.2
			c-0.2,0.1-0.5,0.2-0.7,0.4c-0.2,0.1-0.4,0.3-0.6,0.5c-0.2,0.2-0.4,0.4-0.5,0.6c-0.1,0.2-0.3,0.4-0.4,0.7
			C30.4,23,30.3,23.2,30.3,23.5L30.3,23.5z M22.6,24v-6.1h-2.1v5.8c0,0.3,0,0.6,0,0.8c0,0.2,0,0.4,0.1,0.6c0,0.2,0.1,0.3,0.1,0.5
			c0,0.1,0.1,0.3,0.1,0.4c0.2,0.3,0.4,0.6,0.6,0.9c0.2,0.3,0.5,0.5,0.8,0.7c0.3,0.2,0.6,0.4,1,0.5c0.3,0.1,0.7,0.2,1.1,0.2
			c0.5,0,1.1-0.1,1.5-0.3c0.5-0.2,0.9-0.5,1.2-0.9c0.4-0.4,0.6-0.8,0.8-1.3c0.2-0.5,0.3-1,0.3-1.6c0-0.6-0.1-1.1-0.3-1.6
			c-0.2-0.5-0.5-0.9-0.8-1.3c-0.4-0.4-0.8-0.7-1.2-0.9c-0.5-0.2-1-0.3-1.5-0.3l-0.2,0l-0.3,0l-0.4,0.1v2.2l0.4-0.1
			c0.2,0,0.3-0.1,0.4-0.1c0.3,0,0.5,0,0.7,0.1c0.2,0.1,0.4,0.2,0.6,0.4c0.3,0.3,0.5,0.8,0.5,1.4c0,0.2,0,0.5-0.1,0.7
			c-0.1,0.2-0.2,0.4-0.3,0.6c-0.2,0.2-0.3,0.3-0.5,0.4c-0.2,0.1-0.4,0.1-0.6,0.1c-0.3,0-0.5,0-0.7-0.1c-0.2-0.1-0.4-0.2-0.5-0.4
			c-0.1-0.2-0.3-0.4-0.3-0.6C22.6,24.6,22.6,24.3,22.6,24L22.6,24z M21.6,31.3l6.8,2.1c0.3,0.2,1,0.2,1.3,0l6.9-2
			c0.5-0.2,0.7-0.7,0.6-1.1c-0.2-0.5-0.7-0.7-1.1-0.6L30,31.5c-0.7,0.2-1.2,0.1-1.9-0.1c-2-0.6-3.9-1.2-5.9-1.8
			c-0.5-0.2-1,0.1-1.1,0.6C20.9,30.7,21.2,31.2,21.6,31.3z"/>
	</g>
	<g>
		<path fill-rule="evenodd" clip-rule="evenodd" fill="#045AA1" d="M0.7,20.9v7.2h2.5v-7.2c0-0.3,0-0.5,0.1-0.7
			c0.1-0.2,0.1-0.4,0.3-0.6c0.1-0.2,0.3-0.3,0.4-0.4c0.2-0.1,0.4-0.1,0.6-0.1c0.2,0,0.3,0,0.5,0.1c0.1,0.1,0.3,0.1,0.4,0.3
			c0.1,0.1,0.2,0.3,0.3,0.4c0.1,0.1,0.1,0.3,0.1,0.5c0,0.2,0,0.4-0.1,0.5c-0.1,0.2-0.2,0.3-0.3,0.4c-0.1,0.1-0.3,0.2-0.5,0.2
			c-0.2,0-0.4,0.1-0.6,0.1H3.9v2.2H4c0.4,0,0.7,0,0.9,0.1c0.3,0.1,0.5,0.2,0.6,0.3C5.9,24.5,6,24.9,6,25.6v2.6h2.5v-3.3
			c0-0.4,0-0.7-0.1-0.9c-0.1-0.3-0.2-0.5-0.3-0.6c-0.1-0.2-0.3-0.3-0.6-0.4c-0.2-0.1-0.5-0.2-0.9-0.2l-0.8-0.1l0.8-0.2
			c0.3-0.1,0.5-0.2,0.7-0.4c0.2-0.1,0.4-0.3,0.5-0.5c0.2-0.2,0.3-0.4,0.3-0.7c0.1-0.2,0.1-0.5,0.1-0.8c0-0.4-0.1-0.8-0.3-1.2
			c-0.2-0.4-0.5-0.7-0.8-1c-0.4-0.3-0.8-0.5-1.2-0.7c-0.4-0.2-0.9-0.2-1.5-0.2c-0.6,0-1.1,0.1-1.6,0.3c-0.5,0.2-0.9,0.5-1.2,0.8
			c-0.4,0.4-0.6,0.8-0.8,1.2C0.7,19.8,0.7,20.3,0.7,20.9z"/>
	</g>
	<g>
		<path fill-rule="evenodd" clip-rule="evenodd" fill="#045AA1" d="M11.6,25c-0.1-0.2-0.1-0.4-0.1-0.7c0-0.2,0-0.5,0.1-0.7
			c0.1-0.2,0.2-0.4,0.4-0.6c0.2-0.2,0.3-0.3,0.5-0.4c0.2-0.1,0.4-0.1,0.6-0.1c0.2,0,0.4,0,0.6,0.1c0.2,0.1,0.4,0.2,0.5,0.4
			c0.2,0.2,0.3,0.4,0.4,0.6c0.1,0.2,0.1,0.4,0.1,0.7c0,0.2,0,0.5-0.1,0.7c-0.1,0.2-0.2,0.4-0.4,0.6c-0.2,0.2-0.3,0.3-0.5,0.4
			c-0.2,0.1-0.4,0.1-0.6,0.1c-0.2,0-0.4,0-0.6-0.1c-0.2-0.1-0.4-0.2-0.5-0.4C11.8,25.4,11.7,25.2,11.6,25L11.6,25z M9.4,23.5
			c0,0.3-0.1,0.5-0.1,0.8c0,0.3,0,0.5,0.1,0.8c0,0.3,0.1,0.5,0.2,0.7c0.1,0.2,0.2,0.5,0.4,0.7c0.1,0.2,0.3,0.4,0.5,0.6
			c0.2,0.2,0.4,0.4,0.6,0.5c0.2,0.1,0.4,0.3,0.7,0.4c0.2,0.1,0.5,0.2,0.7,0.2c0.2,0,0.5,0.1,0.8,0.1c0.3,0,0.5,0,0.8-0.1
			c0.3-0.1,0.5-0.1,0.7-0.2c0.2-0.1,0.5-0.2,0.7-0.4c0.2-0.1,0.4-0.3,0.6-0.5c0.2-0.2,0.3-0.4,0.5-0.6c0.1-0.2,0.3-0.4,0.4-0.7
			c0.2-0.5,0.3-1,0.3-1.5c0-0.3,0-0.5-0.1-0.8c0-0.3-0.1-0.5-0.2-0.7c-0.1-0.2-0.2-0.5-0.4-0.7c-0.1-0.2-0.3-0.4-0.5-0.6
			c-0.2-0.2-0.4-0.4-0.6-0.5c-0.2-0.1-0.4-0.3-0.7-0.4c-0.2-0.1-0.5-0.2-0.7-0.2c-0.2,0-0.5-0.1-0.8-0.1c-0.3,0-0.5,0-0.8,0.1
			c-0.2,0-0.5,0.1-0.7,0.2c-0.2,0.1-0.5,0.2-0.7,0.4c-0.2,0.1-0.4,0.3-0.6,0.5c-0.2,0.2-0.4,0.4-0.5,0.6c-0.1,0.2-0.3,0.4-0.4,0.7
			C9.5,23,9.4,23.2,9.4,23.5z"/>
	</g>
	<g>
		<path fill-rule="evenodd" clip-rule="evenodd" fill="#E47D13" d="M42.2,25.8v2.4h3.1c0.5,0,0.8,0,1.2,0c0.3,0,0.6-0.1,0.8-0.1
			c0.2,0,0.4-0.1,0.6-0.2c0.2-0.1,0.3-0.2,0.5-0.3c0.2-0.1,0.3-0.3,0.5-0.4c0.1-0.2,0.3-0.4,0.4-0.6c0.2-0.4,0.3-0.9,0.3-1.3
			c0-0.3,0-0.6-0.1-0.8c-0.1-0.3-0.2-0.5-0.3-0.7c-0.2-0.2-0.3-0.5-0.6-0.7c-0.2-0.2-0.5-0.4-0.8-0.6l-2.1-1.3
			c-0.1-0.1-0.3-0.2-0.3-0.2c-0.1-0.1-0.2-0.2-0.3-0.3c-0.1-0.1-0.1-0.2-0.2-0.3c0-0.1-0.1-0.2-0.1-0.3c0-0.1,0-0.2,0.1-0.3
			c0.1-0.1,0.1-0.1,0.2-0.2c0.1,0,0.2-0.1,0.4-0.1c0.1,0,0.3,0,0.5,0h2.8v-2.2h-2.4c-0.5,0-0.9,0-1.3,0c-0.4,0-0.6,0.1-0.9,0.1
			c-0.2,0.1-0.4,0.1-0.6,0.2c-0.2,0.1-0.3,0.2-0.5,0.3c-0.2,0.1-0.3,0.3-0.4,0.4c-0.1,0.2-0.2,0.3-0.3,0.5c-0.1,0.2-0.1,0.4-0.2,0.6
			c0,0.2-0.1,0.4-0.1,0.7c0,0.2,0,0.5,0.1,0.7c0.1,0.2,0.2,0.5,0.3,0.7c0.1,0.2,0.3,0.4,0.5,0.6c0.2,0.2,0.4,0.4,0.6,0.5l2.2,1.3
			c0.1,0.1,0.3,0.2,0.4,0.3c0.1,0.1,0.2,0.2,0.3,0.3c0.1,0.1,0.1,0.2,0.2,0.3c0,0.1,0.1,0.2,0.1,0.3c0,0.1,0,0.2-0.1,0.3
			c0,0.1-0.1,0.2-0.2,0.2c-0.1,0.1-0.2,0.1-0.3,0.1c-0.1,0-0.2,0-0.3,0H42.2z"/>
	</g>
	<g>
		<path fill-rule="evenodd" clip-rule="evenodd" fill="#E47D13" d="M50.2,24.7v6.9h2.1v-7.1c0-0.3,0-0.6,0.1-0.8
			c0.1-0.2,0.2-0.5,0.3-0.6c0.1-0.2,0.3-0.3,0.5-0.4c0.2-0.1,0.4-0.1,0.7-0.1c0.2,0,0.5,0,0.7,0.1c0.2,0.1,0.4,0.2,0.5,0.4
			c0.1,0.2,0.3,0.4,0.3,0.6c0.1,0.2,0.1,0.4,0.1,0.7c0,0.3,0,0.5-0.1,0.7c-0.1,0.2-0.2,0.4-0.4,0.6c-0.2,0.2-0.3,0.3-0.6,0.4
			C54.4,26,54.2,26,53.9,26l-0.2,0l-0.2,0l-0.4-0.1v2.3l0.4,0.1c0.2,0,0.3,0,0.5,0c0.6,0,1.1-0.1,1.5-0.3c0.5-0.2,0.9-0.5,1.2-0.8
			c0.4-0.4,0.6-0.8,0.8-1.3c0.2-0.5,0.3-1,0.3-1.6c0-0.6-0.1-1.1-0.3-1.6c-0.2-0.5-0.5-0.9-0.8-1.3c-0.4-0.4-0.8-0.7-1.2-0.8
			c-0.5-0.2-1-0.3-1.5-0.3c-0.4,0-0.8,0.1-1.1,0.1c-0.3,0.1-0.7,0.2-1,0.4c-0.3,0.2-0.6,0.4-0.8,0.7c-0.2,0.3-0.4,0.6-0.6,0.9
			c-0.1,0.1-0.1,0.3-0.1,0.4c0,0.1-0.1,0.3-0.1,0.4c0,0.2,0,0.3-0.1,0.6C50.2,24.1,50.2,24.4,50.2,24.7z"/>
	</g>
	<g>
		<path fill-rule="evenodd" clip-rule="evenodd" fill="#E47D13" d="M64,24.5v3.7h2.2v-3.2c0-0.4,0-0.7,0-0.9c0-0.3,0-0.5-0.1-0.6
			c0-0.2-0.1-0.3-0.1-0.5c0-0.1-0.1-0.3-0.2-0.4c-0.2-0.3-0.4-0.7-0.6-0.9c-0.2-0.3-0.5-0.5-0.8-0.7c-0.3-0.2-0.6-0.3-1-0.4
			c-0.3-0.1-0.7-0.1-1.1-0.1c-0.6,0-1.1,0.1-1.5,0.3c-0.5,0.2-0.9,0.5-1.2,0.8c-0.4,0.4-0.6,0.8-0.8,1.3c-0.2,0.5-0.3,1-0.3,1.6
			c0,0.6,0.1,1.1,0.3,1.6c0.2,0.5,0.5,0.9,0.8,1.3c0.4,0.4,0.8,0.7,1.2,0.8c0.5,0.2,1,0.3,1.5,0.3l0.2,0l0.3,0l0.4-0.1v-2.3L62.9,26
			l-0.2,0l-0.2,0c-0.3,0-0.5,0-0.7-0.1c-0.2-0.1-0.4-0.2-0.6-0.4c-0.2-0.2-0.3-0.4-0.4-0.6c-0.1-0.2-0.1-0.5-0.1-0.7
			c0-0.3,0-0.5,0.1-0.7c0.1-0.2,0.2-0.4,0.3-0.6c0.2-0.2,0.3-0.3,0.5-0.4c0.2-0.1,0.4-0.1,0.6-0.1c0.3,0,0.5,0,0.7,0.1
			c0.2,0.1,0.4,0.2,0.6,0.4c0.1,0.2,0.3,0.4,0.3,0.6C64,23.9,64,24.2,64,24.5z"/>
	</g>
	<g>
		<path fill-rule="evenodd" clip-rule="evenodd" fill="#E47D13" d="M71.2,22.6h0.9v-2.1h-0.8c-0.7,0-1.3,0.1-1.9,0.3
			c-0.5,0.2-1,0.4-1.4,0.8c-0.4,0.3-0.7,0.8-0.9,1.2c-0.2,0.5-0.3,1-0.3,1.6c0,0.6,0.1,1.1,0.3,1.6c0.2,0.5,0.5,0.9,0.9,1.2
			c0.4,0.4,0.9,0.6,1.4,0.8c0.6,0.2,1.2,0.3,1.9,0.3h0.8V26h-0.9c-0.3,0-0.6,0-0.9-0.1c-0.3-0.1-0.5-0.2-0.7-0.3
			c-0.2-0.2-0.3-0.3-0.4-0.6c-0.1-0.2-0.1-0.4-0.1-0.7c0-0.3,0-0.5,0.1-0.7c0.1-0.2,0.2-0.4,0.4-0.6c0.2-0.2,0.4-0.3,0.7-0.4
			C70.6,22.6,70.9,22.6,71.2,22.6z"/>
	</g>
	<g>
		<path fill-rule="evenodd" clip-rule="evenodd" fill="#E47D13" d="M80,26.5c0.3-0.3,0.5-0.7,0.7-1.1l-1.6-0.8
			c-0.1,0.2-0.3,0.4-0.4,0.6c-0.2,0.2-0.4,0.4-0.6,0.5c-0.2,0.1-0.4,0.3-0.7,0.3c-0.2,0.1-0.5,0.1-0.7,0.1c-0.3,0-0.5-0.1-0.8-0.2
			c-0.2-0.1-0.4-0.3-0.6-0.5c-0.2-0.2-0.3-0.4-0.4-0.7c-0.1-0.3-0.1-0.5-0.1-0.8c0-0.3,0-0.6,0.1-0.8c0.1-0.3,0.2-0.5,0.4-0.7
			c0.2-0.2,0.4-0.4,0.6-0.5c0.2-0.1,0.5-0.2,0.8-0.2c0.1,0,0.2,0,0.3,0c0.1,0,0.2,0,0.2,0.1c0.1,0,0.2,0.1,0.2,0.1
			c0.1,0,0.2,0.1,0.2,0.1l0.2,0.1l-2.2,1.5l0.8,1.2l3.6-2.5c-0.2-0.3-0.4-0.6-0.6-0.9c-0.3-0.3-0.5-0.6-0.9-0.8
			c-0.3-0.2-0.6-0.4-1-0.5c-0.3-0.1-0.7-0.2-1.1-0.2c-0.3,0-0.5,0-0.8,0.1c-0.2,0-0.5,0.1-0.7,0.2c-0.2,0.1-0.5,0.2-0.7,0.4
			c-0.2,0.1-0.4,0.3-0.6,0.5c-0.2,0.2-0.4,0.4-0.5,0.6c-0.1,0.2-0.3,0.4-0.4,0.7c-0.1,0.2-0.2,0.5-0.2,0.7c0,0.3-0.1,0.5-0.1,0.8
			c0,0.3,0,0.5,0.1,0.8c0,0.3,0.1,0.5,0.2,0.7c0.1,0.2,0.2,0.5,0.4,0.7c0.1,0.2,0.3,0.4,0.5,0.6c0.2,0.2,0.4,0.4,0.6,0.5
			c0.2,0.1,0.4,0.3,0.7,0.4c0.2,0.1,0.5,0.2,0.7,0.2c0.2,0,0.5,0.1,0.7,0.1c0.5,0,0.9-0.1,1.3-0.2c0.4-0.1,0.8-0.3,1.2-0.6
			C79.4,27.2,79.7,26.9,80,26.5z"/>
	</g>
	<g>
		<path fill="#045AA1" d="M42.1,31.8h1.2c1.2,0,1.8,0.6,1.8,1.8c0,1.2-0.6,1.8-1.8,1.8h-1.2V31.8z M42.9,34.8h0.4
			c0.7,0,1.1-0.4,1.1-1.2c0-0.8-0.3-1.2-1.1-1.2h-0.4V34.8z"/>
		<path fill="#045AA1" d="M46.5,31.8v0.6h-0.8v-0.6H46.5z M46.4,32.8v2.5h-0.8v-2.5H46.4z"/>
		<path fill="#045AA1" d="M48.3,33.5c0-0.2-0.1-0.2-0.3-0.3c-0.2,0-0.3,0.1-0.3,0.2c0,0.1,0.2,0.2,0.5,0.3c0.5,0,0.8,0.3,0.9,0.8
			c0,0.5-0.4,0.7-1.1,0.8c-0.7,0-1.1-0.3-1.1-0.8h0.7c0,0.2,0.2,0.3,0.4,0.3c0.2,0,0.4-0.1,0.4-0.3c0-0.1-0.2-0.2-0.5-0.3
			c-0.6-0.1-0.9-0.4-0.9-0.8c0-0.4,0.4-0.7,1.1-0.7c0.6,0,1,0.2,1,0.7H48.3z"/>
		<path fill="#045AA1" d="M50.9,33.7c0-0.3-0.2-0.5-0.4-0.5c-0.2,0-0.3,0.2-0.3,0.7c0,0,0,0.1,0,0.1c0,0,0,0,0,0.1
			c0,0.5,0.1,0.8,0.4,0.8c0.2,0,0.4-0.2,0.4-0.5h0.7c0,0.6-0.4,1-1.1,1c-0.7,0-1.1-0.5-1.1-1.3c0.1-0.8,0.4-1.3,1.1-1.3
			c0.7,0,1.1,0.3,1.1,1H50.9z"/>
		<path fill="#045AA1" d="M53.3,35.4c-0.8,0-1.3-0.5-1.3-1.3c0-0.8,0.5-1.3,1.3-1.3c0.8,0,1.3,0.5,1.3,1.3
			C54.6,35,54.1,35.4,53.3,35.4z M53.3,34.9c0.4,0,0.5-0.3,0.5-0.8c0-0.6-0.2-0.8-0.5-0.8c-0.4,0-0.5,0.3-0.5,0.8
			C52.8,34.7,52.9,34.9,53.3,34.9z"/>
		<path fill="#045AA1" d="M54.9,32.8h0.8l0.6,1.7l0.6-1.7h0.7l-0.9,2.5h-0.8L54.9,32.8z"/>
		<path fill="#045AA1" d="M58.6,34.3c0,0.4,0.1,0.6,0.4,0.6c0.2,0,0.4-0.1,0.5-0.3h0.7c-0.1,0.5-0.5,0.8-1.2,0.8
			c-0.8,0-1.2-0.4-1.2-1.3c0-0.8,0.4-1.3,1.2-1.3c0.5,0,0.9,0.2,1.1,0.6c0.1,0.1,0.1,0.3,0.1,0.5c0,0.2,0,0.3,0,0.5H58.6z
			 M59.5,33.8c0-0.4-0.2-0.5-0.5-0.5c-0.3,0-0.4,0.2-0.4,0.5H59.5z"/>
		<path fill="#045AA1" d="M61.4,32.8v0.5h0c0.1-0.4,0.4-0.5,0.9-0.5v0.7h-0.3c-0.2,0-0.3,0.1-0.4,0.2c0,0.1-0.1,0.2-0.1,0.4
			c0,0,0,0.1,0,0.1v1.3h-0.7v-2c0,0,0-0.1,0-0.2c0-0.1,0-0.3,0-0.3H61.4z"/>
		<path fill="#045AA1" d="M64.8,35.4H64v-3.6h1.5c0.8,0,1.2,0.3,1.3,0.9c0,0.5-0.3,0.8-0.7,0.9v0c0.4,0,0.6,0.3,0.6,0.8
			c0,0.1,0,0.1,0,0.1c0,0.4,0.1,0.7,0.2,0.9h-0.8c-0.1-0.3-0.1-0.6-0.1-1c0-0.3-0.1-0.5-0.3-0.5h-0.8V35.4z M64.8,33.3h0.6
			c0.4,0,0.5-0.2,0.5-0.5c0-0.3-0.2-0.5-0.5-0.5h-0.6V33.3z"/>
		<path fill="#045AA1" d="M68.6,35.4c-0.8,0-1.3-0.5-1.3-1.3c0-0.8,0.5-1.3,1.3-1.3c0.8,0,1.3,0.5,1.3,1.3
			C69.9,35,69.4,35.4,68.6,35.4z M68.6,34.9c0.4,0,0.5-0.3,0.5-0.8c0-0.6-0.2-0.8-0.5-0.8c-0.4,0-0.5,0.3-0.5,0.8
			C68.1,34.7,68.2,34.9,68.6,34.9z"/>
		<path fill="#045AA1" d="M70.4,31.8h0.7v1.4h0c0.2-0.2,0.4-0.3,0.7-0.4c0.7,0,1.1,0.5,1.2,1.3c-0.1,0.8-0.4,1.3-1.1,1.3
			c-0.4,0-0.6-0.1-0.8-0.4c0,0,0,0.1,0,0.2c0,0.1,0,0.1,0,0.2h-0.7c0-0.1,0-0.1,0-0.2c0-0.1,0-0.2,0-0.3V31.8z M71.7,34.9
			c0.4,0,0.5-0.3,0.5-0.8c0-0.6-0.2-0.8-0.5-0.8c-0.3,0-0.5,0.3-0.5,0.8C71.1,34.7,71.3,34.9,71.7,34.9z"/>
		<path fill="#045AA1" d="M74.7,35.4c-0.8,0-1.3-0.5-1.3-1.3c0-0.8,0.5-1.3,1.3-1.3c0.8,0,1.3,0.5,1.3,1.3
			C76,35,75.5,35.4,74.7,35.4z M74.7,34.9c0.4,0,0.5-0.3,0.5-0.8c0-0.6-0.2-0.8-0.5-0.8c-0.4,0-0.5,0.3-0.5,0.8
			C74.2,34.7,74.3,34.9,74.7,34.9z"/>
		<path fill="#045AA1" d="M76.7,32.8v-0.5l0.8-0.3v0.8H78v0.5h-0.5v1.2c0,0.3,0.1,0.5,0.3,0.4c0.1,0,0.2,0,0.3,0v0.5
			c-0.2,0-0.4,0-0.6,0c-0.5,0-0.7-0.2-0.7-0.8v-1.2h-0.5v-0.5H76.7z"/>
		<path fill="#045AA1" d="M79.7,33.5c0-0.2-0.1-0.2-0.3-0.3c-0.2,0-0.3,0.1-0.3,0.2c0,0.1,0.2,0.2,0.5,0.3c0.5,0,0.8,0.3,0.9,0.8
			c0,0.5-0.4,0.7-1.1,0.8c-0.7,0-1.1-0.3-1.1-0.8H79c0,0.2,0.2,0.3,0.4,0.3c0.2,0,0.4-0.1,0.4-0.3c0-0.1-0.2-0.2-0.5-0.3
			c-0.6-0.1-0.9-0.4-0.9-0.8c0-0.4,0.4-0.7,1.1-0.7c0.6,0,1,0.2,1,0.7H79.7z"/>
	</g>
</g>
</svg>
