<?xml version="1.0" encoding="utf-8"?>
<!-- Generator: Adobe Illustrator 18.1.1, SVG Export Plug-In . SVG Version: 6.00 Build 0)  -->
<svg version="1.1" id="Layer_1" xmlns="http://www.w3.org/2000/svg" xmlns:xlink="http://www.w3.org/1999/xlink" x="0px" y="0px"
	 viewBox="0 0 66.1 24.7" enable-background="new 0 0 66.1 24.7" xml:space="preserve">
<g>
	<path fill="#FFFFFF" d="M65.1,22.1c0,0-0.4,0.9-1.3,1.6c-1.9,1.5-4.8,0.6-5.1,0.6c-0.2,0.1-0.5,0.2-0.9,0.3
		c-0.5,0.1-1.2,0.1-3.2-0.5c-0.5-0.2-1.2-0.4-2-0.7l-0.8,0c-0.3,0-0.5,0-0.8-0.1c-1.1,0.4-2.1,0.4-2.7,0.4l-0.2,0
		c-0.6,0-1.3-0.1-2.1-0.2c-0.6-0.1-1.2-0.2-1.7-0.3c-0.5,0.2-1.2,0.4-1.9,0.5c-1.9,0.3-3.6,0.1-4.6-0.2c-0.3,0.1-1.1,0.5-2.2,0.4
		c-0.9-0.1-1.5-0.6-1.8-0.8c-0.3,0.1-0.6,0.2-1,0.3c-0.8,0.2-1.4,0.2-2,0.2c-0.2,0-0.5-0.1-0.8-0.1c-0.7,0-1.2,0.1-1.4,0.1
		c-1.3,0.2-1.8-0.2-4.2-0.3c-0.4,0-0.8,0-1,0c-0.7,0-1.4-0.1-2.1-0.1c0,0-0.1,0-0.1,0c-0.2,0-0.4,0-0.6,0c-0.3,0.1-0.5,0.3-0.7,0.4
		c-1.5,0.7-2.9,0.7-3.5,0.7l-0.2,0c-0.1,0-0.2,0-0.3,0c-1.7,0-3.4-0.5-4.7-1.4c-0.4,0.1-0.9,0.2-1.3,0.2c-0.9,0.6-2,1-3.2,1.1
		c-0.1,0-0.2,0-0.4,0c-3.3,0-6-2.5-6.3-5.8c0,0,0.1-0.1,0.1-0.1c0-0.2,0.1-0.5,0.1-0.8c0.1-0.8-0.1-1.2-0.2-2c0-0.4-0.1-0.9,0-1.5
		V14c0-0.8,0.2-1.6,0.5-2.4C0.5,10.8,0.6,10,0.7,9.2l0-0.3c0.1-0.7,0.3-2.1,1-3.5C3,3,5.4,1.5,8.1,1.5C9,1,9.9,0.8,10.9,0.8
		c0.1,0,0.2,0,0.3,0c2,0.1,3.8,1.1,4.9,2.7c0.2-0.5,1.1-2.1,3-2.9c2.1-0.8,4.5-0.3,6.3,1.3c0.1-0.3,0.3-0.8,0.8-1.1
		c1-0.9,2.5-0.4,2.6-0.4c0.9,0,1.7,0.1,2.6,0.1c0.5,0.1,1,0.2,1.5,0.3c1.2,0.2,2.4,0.5,3.6,0.7c0.1,0,0.1,0,0.2,0l3.8-0.1
		c1.6,0,3-0.1,3.3-0.1c0.1,0,0.2,0,0.3,0c0.1,0,0.2,0,0.2,0c1.4,0,2.9,0.5,4,1.4c1.1-0.8,2.4-1.2,3.8-1.2h1.3c1-0.6,2.1-1,3.3-1
		l3.2-0.1h0.1c3.4,0,6.2,2.8,6.3,6.2c0,1.6-0.5,3-1.5,4.2l0,2.9c0.2,0.6,1.1,4.1,0.9,6.5C65.5,20.9,65.4,21.5,65.1,22.1z"/>
</g>
<g>
	<g>
		<path fill-rule="evenodd" clip-rule="evenodd" fill="#005FAC" d="M16.6,8.2h2.9V6.8c0-0.5,0.4-0.9,0.9-0.9h1.4L20.5,3l-0.2-0.6h0
			c-0.5,0-0.9-0.4-0.9-0.9c0-0.5,0.4-0.9,0.9-0.9c0.5,0,0.9,0.4,0.9,0.9c0,0.3-0.1,0.5-0.3,0.7l0.3,0.6l1.5,3.2h2.8l1.7-3.7
			c-0.2-0.2-0.3-0.4-0.3-0.7c0-0.5,0.4-0.9,0.9-0.9c0.5,0,0.9,0.4,0.9,0.9c0,0.5-0.4,0.9-0.9,0.9l0,0l-1.5,3.5h1.7
			c0.5,0,0.9,0.4,0.9,0.9v1.4h3c0.9,0,1.7,0.8,1.7,1.7v11.7c0,0.9-0.8,1.7-1.7,1.7H16.6c-0.9,0-1.7-0.8-1.7-1.7V9.9
			C15,9,15.7,8.2,16.6,8.2L16.6,8.2z M26.7,15.1c0.1,0.2,0.2,0.3,0.3,0.5c0.1,0.1,0.3,0.2,0.4,0.3c0.2,0.1,0.3,0.1,0.5,0.1
			c0.2,0,0.3,0,0.5-0.1c0.2-0.1,0.3-0.2,0.4-0.3c0.1-0.1,0.2-0.3,0.3-0.5c0.1-0.2,0.1-0.3,0.1-0.5c0-0.2,0-0.4-0.1-0.5
			c-0.1-0.2-0.2-0.3-0.3-0.5c-0.1-0.1-0.3-0.2-0.4-0.3c-0.2-0.1-0.3-0.1-0.5-0.1c-0.2,0-0.3,0-0.5,0.1c-0.2,0.1-0.3,0.2-0.4,0.3
			c-0.1,0.1-0.2,0.3-0.3,0.5c-0.1,0.2-0.1,0.3-0.1,0.5C26.6,14.7,26.6,14.9,26.7,15.1L26.7,15.1z M24.9,13.9c0,0.2-0.1,0.4-0.1,0.6
			c0,0.2,0,0.4,0.1,0.6c0,0.2,0.1,0.4,0.2,0.6c0.1,0.2,0.2,0.4,0.3,0.5c0.1,0.2,0.2,0.3,0.4,0.5c0.1,0.1,0.3,0.3,0.5,0.4
			c0.2,0.1,0.3,0.2,0.5,0.3c0.2,0.1,0.4,0.1,0.6,0.2c0.2,0,0.4,0.1,0.6,0.1c0.2,0,0.4,0,0.6-0.1c0.2,0,0.4-0.1,0.6-0.2
			c0.2-0.1,0.4-0.2,0.5-0.3c0.2-0.1,0.3-0.2,0.5-0.4c0.1-0.1,0.3-0.3,0.4-0.5c0.1-0.2,0.2-0.4,0.3-0.5c0.2-0.4,0.2-0.8,0.2-1.2
			c0-0.2,0-0.4-0.1-0.6c0-0.2-0.1-0.4-0.2-0.6c-0.1-0.2-0.2-0.4-0.3-0.5c-0.1-0.2-0.2-0.3-0.4-0.5c-0.1-0.1-0.3-0.3-0.5-0.4
			c-0.2-0.1-0.3-0.2-0.5-0.3c-0.2-0.1-0.4-0.1-0.6-0.2c-0.2,0-0.4-0.1-0.6-0.1c-0.2,0-0.4,0-0.6,0.1c-0.2,0-0.4,0.1-0.6,0.2
			c-0.2,0.1-0.4,0.2-0.5,0.3c-0.2,0.1-0.3,0.2-0.5,0.4c-0.1,0.2-0.3,0.3-0.4,0.5c-0.1,0.2-0.2,0.4-0.3,0.5
			C24.9,13.5,24.9,13.7,24.9,13.9L24.9,13.9z M18.8,14.3V9.5h-1.7v4.6c0,0.2,0,0.5,0,0.6c0,0.2,0,0.3,0,0.5c0,0.1,0,0.3,0.1,0.4
			c0,0.1,0.1,0.2,0.1,0.3c0.1,0.3,0.3,0.5,0.5,0.7c0.2,0.2,0.4,0.4,0.7,0.6c0.2,0.2,0.5,0.3,0.8,0.4c0.3,0.1,0.5,0.1,0.8,0.1
			c0.4,0,0.8-0.1,1.2-0.2c0.4-0.2,0.7-0.4,1-0.7c0.3-0.3,0.5-0.6,0.7-1c0.1-0.4,0.2-0.8,0.2-1.2c0-0.5-0.1-0.9-0.2-1.3
			c-0.1-0.4-0.4-0.7-0.6-1c-0.3-0.3-0.6-0.5-1-0.7c-0.4-0.1-0.8-0.2-1.2-0.2l-0.2,0l-0.2,0l-0.3,0.1v1.8l0.3-0.1c0.1,0,0.2,0,0.3,0
			c0.2,0,0.4,0,0.6,0.1c0.2,0.1,0.3,0.2,0.4,0.3c0.2,0.3,0.4,0.6,0.4,1.1c0,0.2,0,0.4-0.1,0.5c-0.1,0.2-0.1,0.3-0.3,0.5
			c-0.1,0.1-0.3,0.3-0.4,0.3c-0.2,0.1-0.3,0.1-0.5,0.1c-0.2,0-0.4,0-0.6-0.1c-0.2-0.1-0.3-0.2-0.4-0.3c-0.1-0.1-0.2-0.3-0.3-0.5
			C18.8,14.8,18.8,14.6,18.8,14.3L18.8,14.3z M18,20.1l5.4,1.6c0.2,0.1,0.8,0.1,1,0l5.4-1.6c0.4-0.1,0.6-0.5,0.5-0.9
			c-0.1-0.4-0.5-0.6-0.9-0.5l-4.8,1.4c-0.5,0.1-1,0.1-1.5,0c-1.5-0.5-3.1-0.9-4.6-1.4c-0.4-0.1-0.8,0.1-0.9,0.4
			C17.5,19.6,17.7,20,18,20.1z"/>
	</g>
	<g>
		<path fill-rule="evenodd" clip-rule="evenodd" fill="#005FAC" d="M1.5,11.9v5.7h1.9v-5.7c0-0.2,0-0.4,0.1-0.6
			c0-0.2,0.1-0.3,0.2-0.4c0.1-0.1,0.2-0.2,0.4-0.3c0.1-0.1,0.3-0.1,0.5-0.1c0.1,0,0.3,0,0.4,0.1c0.1,0,0.2,0.1,0.3,0.2
			c0.1,0.1,0.2,0.2,0.2,0.3c0,0.1,0.1,0.2,0.1,0.4c0,0.2,0,0.3-0.1,0.4c-0.1,0.1-0.1,0.2-0.2,0.3c-0.1,0.1-0.2,0.1-0.4,0.2
			c-0.1,0-0.3,0.1-0.5,0.1H4.1v1.7h0.1c0.3,0,0.5,0,0.7,0.1c0.2,0,0.4,0.1,0.5,0.2c0.2,0.2,0.3,0.6,0.3,1.1v2h1.9V15
			c0-0.3,0-0.5-0.1-0.7c-0.1-0.2-0.1-0.4-0.3-0.5c-0.1-0.1-0.3-0.2-0.4-0.3c-0.2-0.1-0.4-0.1-0.7-0.2l-0.6-0.1L6.2,13
			c0.2-0.1,0.4-0.2,0.6-0.3c0.2-0.1,0.3-0.3,0.4-0.4c0.1-0.2,0.2-0.3,0.3-0.5c0.1-0.2,0.1-0.4,0.1-0.6c0-0.3-0.1-0.6-0.2-0.9
			C7.2,10,6.9,9.7,6.7,9.5C6.4,9.2,6,9.1,5.7,8.9C5.3,8.8,5,8.7,4.5,8.7C4.1,8.7,3.7,8.8,3.3,9c-0.4,0.1-0.7,0.4-1,0.6
			c-0.3,0.3-0.5,0.6-0.6,1C1.5,11,1.5,11.4,1.5,11.9z"/>
	</g>
	<g>
		<path fill-rule="evenodd" clip-rule="evenodd" fill="#005FAC" d="M10.1,15.1c-0.1-0.2-0.1-0.3-0.1-0.5c0-0.2,0-0.4,0.1-0.5
			c0.1-0.2,0.2-0.3,0.3-0.5c0.1-0.1,0.3-0.2,0.4-0.3c0.2-0.1,0.3-0.1,0.5-0.1c0.2,0,0.3,0,0.5,0.1c0.2,0.1,0.3,0.2,0.4,0.3
			c0.1,0.1,0.2,0.3,0.3,0.5c0.1,0.2,0.1,0.3,0.1,0.5c0,0.2,0,0.4-0.1,0.5c-0.1,0.2-0.2,0.3-0.3,0.5c-0.1,0.1-0.3,0.2-0.4,0.3
			c-0.2,0.1-0.3,0.1-0.5,0.1c-0.2,0-0.3,0-0.5-0.1c-0.2-0.1-0.3-0.2-0.4-0.3C10.3,15.4,10.2,15.2,10.1,15.1L10.1,15.1z M8.3,13.9
			c0,0.2-0.1,0.4-0.1,0.6c0,0.2,0,0.4,0.1,0.6c0,0.2,0.1,0.4,0.2,0.6c0.1,0.2,0.2,0.4,0.3,0.5c0.1,0.2,0.2,0.3,0.4,0.5
			c0.1,0.1,0.3,0.3,0.5,0.4c0.2,0.1,0.3,0.2,0.5,0.3c0.2,0.1,0.4,0.1,0.6,0.2c0.2,0,0.4,0.1,0.6,0.1c0.2,0,0.4,0,0.6-0.1
			c0.2,0,0.4-0.1,0.6-0.2c0.2-0.1,0.4-0.2,0.5-0.3c0.2-0.1,0.3-0.2,0.5-0.4c0.1-0.1,0.3-0.3,0.4-0.5c0.1-0.2,0.2-0.4,0.3-0.5
			c0.2-0.4,0.2-0.8,0.2-1.2c0-0.2,0-0.4-0.1-0.6c0-0.2-0.1-0.4-0.2-0.6c-0.1-0.2-0.2-0.4-0.3-0.5c-0.1-0.2-0.2-0.3-0.4-0.5
			c-0.1-0.1-0.3-0.3-0.5-0.4c-0.2-0.1-0.3-0.2-0.5-0.3c-0.2-0.1-0.4-0.1-0.6-0.2c-0.2,0-0.4-0.1-0.6-0.1c-0.2,0-0.4,0-0.6,0.1
			c-0.2,0-0.4,0.1-0.6,0.2c-0.2,0.1-0.4,0.2-0.5,0.3c-0.2,0.1-0.3,0.2-0.5,0.4c-0.1,0.2-0.3,0.3-0.4,0.5c-0.1,0.2-0.2,0.4-0.3,0.5
			C8.4,13.5,8.4,13.7,8.3,13.9z"/>
	</g>
	<g>
		<path fill-rule="evenodd" clip-rule="evenodd" fill="#EE8000" d="M34.3,15.7v1.9h2.5c0.4,0,0.7,0,0.9,0c0.3,0,0.5,0,0.6-0.1
			c0.2,0,0.3-0.1,0.5-0.2c0.1-0.1,0.3-0.1,0.4-0.2c0.1-0.1,0.3-0.2,0.4-0.3c0.1-0.1,0.2-0.3,0.3-0.4c0.2-0.3,0.2-0.7,0.2-1.1
			c0-0.2,0-0.4-0.1-0.6c-0.1-0.2-0.1-0.4-0.3-0.6c-0.1-0.2-0.3-0.4-0.4-0.5c-0.2-0.2-0.4-0.3-0.6-0.5l-1.7-1
			c-0.1-0.1-0.2-0.1-0.3-0.2c-0.1-0.1-0.1-0.1-0.2-0.2c-0.1-0.1-0.1-0.1-0.1-0.2c0-0.1,0-0.2,0-0.2c0-0.1,0-0.2,0.1-0.2
			c0-0.1,0.1-0.1,0.2-0.2c0.1,0,0.2-0.1,0.3-0.1c0.1,0,0.3,0,0.4,0h2.2V8.9h-1.9c-0.4,0-0.7,0-1,0C36.3,9,36,9,35.9,9
			c-0.2,0-0.3,0.1-0.5,0.2c-0.1,0.1-0.3,0.2-0.4,0.3c-0.1,0.1-0.2,0.2-0.3,0.3c-0.1,0.1-0.2,0.3-0.2,0.4c-0.1,0.2-0.1,0.3-0.1,0.5
			c0,0.2,0,0.3,0,0.5c0,0.2,0,0.4,0.1,0.6c0.1,0.2,0.1,0.4,0.2,0.5c0.1,0.2,0.2,0.3,0.4,0.5c0.1,0.1,0.3,0.3,0.5,0.4l1.7,1
			c0.1,0.1,0.2,0.1,0.3,0.2c0.1,0.1,0.2,0.1,0.2,0.2c0.1,0.1,0.1,0.1,0.1,0.2c0,0.1,0,0.2,0,0.2c0,0.1,0,0.2,0,0.2
			c0,0.1-0.1,0.1-0.2,0.2c-0.1,0-0.1,0.1-0.2,0.1c-0.1,0-0.2,0-0.3,0H34.3z"/>
	</g>
	<g>
		<path fill-rule="evenodd" clip-rule="evenodd" fill="#EE8000" d="M40.5,14.9v5.4h1.7v-5.6c0-0.2,0-0.5,0.1-0.6
			c0.1-0.2,0.1-0.4,0.3-0.5c0.1-0.1,0.3-0.2,0.4-0.3c0.2-0.1,0.3-0.1,0.6-0.1c0.2,0,0.4,0,0.5,0.1c0.2,0.1,0.3,0.2,0.4,0.3
			c0.1,0.1,0.2,0.3,0.3,0.4c0.1,0.2,0.1,0.4,0.1,0.6c0,0.2,0,0.4-0.1,0.6c-0.1,0.2-0.2,0.3-0.3,0.4c-0.1,0.1-0.3,0.2-0.4,0.3
			c-0.2,0.1-0.3,0.1-0.6,0.1l-0.2,0l-0.2,0l-0.3-0.1v1.8l0.3,0.1c0.1,0,0.3,0,0.4,0c0.4,0,0.8-0.1,1.2-0.2c0.4-0.1,0.7-0.4,1-0.7
			c0.3-0.3,0.5-0.6,0.6-1c0.1-0.4,0.2-0.8,0.2-1.2c0-0.5-0.1-0.9-0.2-1.2c-0.1-0.4-0.4-0.7-0.6-1c-0.3-0.3-0.6-0.5-1-0.7
			c-0.4-0.1-0.8-0.2-1.2-0.2c-0.3,0-0.6,0-0.9,0.1c-0.3,0.1-0.5,0.2-0.8,0.4c-0.2,0.2-0.5,0.3-0.6,0.6c-0.2,0.2-0.3,0.5-0.5,0.7
			c0,0.1-0.1,0.2-0.1,0.3c0,0.1-0.1,0.2-0.1,0.4c0,0.1,0,0.3,0,0.5C40.5,14.4,40.5,14.6,40.5,14.9z"/>
	</g>
	<g>
		<path fill-rule="evenodd" clip-rule="evenodd" fill="#EE8000" d="M51.4,14.7v2.9h1.7v-2.5c0-0.3,0-0.5,0-0.7c0-0.2,0-0.4,0-0.5
			c0-0.1,0-0.2-0.1-0.4c0-0.1-0.1-0.2-0.1-0.3c-0.1-0.3-0.3-0.5-0.5-0.7c-0.2-0.2-0.4-0.4-0.6-0.6c-0.2-0.2-0.5-0.3-0.8-0.4
			c-0.3-0.1-0.6-0.1-0.9-0.1c-0.4,0-0.8,0.1-1.2,0.2c-0.4,0.1-0.7,0.4-1,0.7c-0.3,0.3-0.5,0.6-0.6,1c-0.1,0.4-0.2,0.8-0.2,1.2
			c0,0.5,0.1,0.9,0.2,1.2c0.1,0.4,0.4,0.7,0.6,1c0.3,0.3,0.6,0.5,1,0.7c0.4,0.1,0.8,0.2,1.2,0.2l0.2,0l0.2,0l0.3-0.1v-1.8l-0.3,0.1
			l-0.2,0l-0.2,0c-0.2,0-0.4,0-0.6-0.1c-0.2-0.1-0.3-0.2-0.4-0.3c-0.1-0.1-0.2-0.3-0.3-0.4c-0.1-0.2-0.1-0.4-0.1-0.6
			c0-0.2,0-0.4,0.1-0.5c0.1-0.2,0.1-0.3,0.3-0.4c0.1-0.1,0.3-0.2,0.4-0.3c0.2-0.1,0.3-0.1,0.5-0.1c0.2,0,0.4,0,0.6,0.1
			c0.2,0.1,0.3,0.2,0.4,0.3c0.1,0.1,0.2,0.3,0.3,0.5C51.4,14.2,51.4,14.4,51.4,14.7z"/>
	</g>
	<g>
		<path fill-rule="evenodd" clip-rule="evenodd" fill="#EE8000" d="M57.2,13.2h0.7v-1.7h-0.6c-0.5,0-1,0.1-1.5,0.2
			c-0.4,0.1-0.8,0.3-1.1,0.6c-0.3,0.3-0.6,0.6-0.7,1c-0.2,0.4-0.2,0.8-0.2,1.2c0,0.5,0.1,0.9,0.2,1.2c0.2,0.4,0.4,0.7,0.7,1
			c0.3,0.3,0.7,0.5,1.1,0.6c0.4,0.1,0.9,0.2,1.5,0.2h0.6v-1.7h-0.7c-0.2,0-0.5,0-0.7-0.1c-0.2-0.1-0.4-0.2-0.5-0.3
			c-0.2-0.1-0.3-0.3-0.4-0.4c-0.1-0.2-0.1-0.4-0.1-0.6c0-0.2,0-0.4,0.1-0.6c0.1-0.2,0.2-0.3,0.3-0.4c0.2-0.1,0.3-0.2,0.5-0.3
			C56.7,13.2,56.9,13.2,57.2,13.2z"/>
	</g>
	<g>
		<path fill-rule="evenodd" clip-rule="evenodd" fill="#EE8000" d="M64.1,16.3c0.2-0.3,0.4-0.6,0.5-0.9l-1.3-0.6
			c-0.1,0.2-0.2,0.3-0.3,0.5c-0.1,0.2-0.3,0.3-0.5,0.4c-0.2,0.1-0.3,0.2-0.5,0.3C61.9,16,61.7,16,61.5,16c-0.2,0-0.4,0-0.6-0.1
			c-0.2-0.1-0.3-0.2-0.5-0.4c-0.1-0.2-0.3-0.3-0.3-0.5c-0.1-0.2-0.1-0.4-0.1-0.7c0-0.2,0-0.4,0.1-0.6c0.1-0.2,0.2-0.4,0.3-0.5
			c0.1-0.2,0.3-0.3,0.5-0.4c0.2-0.1,0.4-0.1,0.6-0.1c0.1,0,0.1,0,0.2,0c0.1,0,0.1,0,0.2,0c0.1,0,0.1,0,0.2,0.1
			c0.1,0,0.1,0.1,0.2,0.1l0.2,0.1l-1.7,1.2l0.6,0.9l2.8-1.9c-0.1-0.3-0.3-0.5-0.5-0.7c-0.2-0.2-0.4-0.4-0.7-0.6
			c-0.2-0.2-0.5-0.3-0.8-0.4c-0.3-0.1-0.6-0.1-0.9-0.1c-0.2,0-0.4,0-0.6,0.1c-0.2,0-0.4,0.1-0.6,0.2c-0.2,0.1-0.4,0.2-0.5,0.3
			c-0.2,0.1-0.3,0.2-0.5,0.4c-0.1,0.2-0.3,0.3-0.4,0.5c-0.1,0.2-0.2,0.3-0.3,0.5c-0.1,0.2-0.1,0.4-0.2,0.6c0,0.2-0.1,0.4-0.1,0.6
			c0,0.2,0,0.4,0.1,0.6c0,0.2,0.1,0.4,0.2,0.6c0.1,0.2,0.2,0.4,0.3,0.5c0.1,0.2,0.2,0.3,0.4,0.5c0.1,0.1,0.3,0.3,0.5,0.4
			c0.2,0.1,0.3,0.2,0.5,0.3c0.2,0.1,0.4,0.1,0.6,0.2c0.2,0,0.4,0.1,0.6,0.1c0.4,0,0.7-0.1,1-0.2c0.3-0.1,0.6-0.3,0.9-0.5
			C63.6,16.9,63.9,16.6,64.1,16.3z"/>
	</g>
	<g>
		<path fill="#005FAC" d="M34.2,20.4h1c0.9,0,1.4,0.5,1.4,1.4c0,0.9-0.5,1.4-1.4,1.4h-1V20.4z M34.8,22.8h0.3c0.6,0,0.8-0.3,0.8-0.9
			c0-0.7-0.3-1-0.8-1h-0.3V22.8z"/>
		<path fill="#005FAC" d="M37.6,20.4v0.5H37v-0.5H37.6z M37.6,21.3v2H37v-2H37.6z"/>
		<path fill="#005FAC" d="M39.1,21.8c0-0.1-0.1-0.2-0.3-0.2c-0.2,0-0.2,0.1-0.2,0.2c0,0.1,0.1,0.2,0.4,0.2c0.4,0,0.7,0.3,0.7,0.7
			c0,0.4-0.3,0.6-0.9,0.6c-0.6,0-0.9-0.2-0.9-0.6h0.6c0,0.1,0.1,0.2,0.3,0.2c0.2,0,0.3-0.1,0.3-0.2c0-0.1-0.1-0.2-0.4-0.2
			c-0.5-0.1-0.7-0.3-0.7-0.6c0-0.4,0.3-0.5,0.9-0.6c0.5,0,0.8,0.2,0.8,0.6H39.1z"/>
		<path fill="#005FAC" d="M41.1,22c0-0.2-0.1-0.4-0.3-0.4c-0.1,0-0.2,0.2-0.3,0.6c0,0,0,0.1,0,0.1c0,0,0,0,0,0.1
			c0,0.4,0.1,0.6,0.3,0.6c0.2,0,0.3-0.1,0.3-0.4h0.6c0,0.5-0.3,0.8-0.9,0.8c-0.6,0-0.9-0.4-0.9-1c0.1-0.7,0.4-1,0.9-1.1
			c0.6,0,0.9,0.3,0.9,0.8H41.1z"/>
		<path fill="#005FAC" d="M43,23.3c-0.7,0-1-0.4-1-1c0-0.7,0.4-1,1-1.1c0.7,0,1,0.4,1,1.1C44,23,43.7,23.3,43,23.3z M43,22.9
			c0.3,0,0.4-0.2,0.4-0.6c0-0.4-0.1-0.7-0.4-0.7c-0.3,0-0.4,0.2-0.4,0.7C42.6,22.7,42.7,22.9,43,22.9z"/>
		<path fill="#005FAC" d="M44.3,21.3h0.6l0.4,1.4l0.5-1.4h0.6l-0.7,2H45L44.3,21.3z"/>
		<path fill="#005FAC" d="M47.2,22.5c0,0.3,0.1,0.5,0.3,0.5c0.2,0,0.3-0.1,0.4-0.2h0.5c-0.1,0.4-0.4,0.6-0.9,0.6c-0.6,0-1-0.3-0.9-1
			c0-0.7,0.3-1,0.9-1.1c0.4,0,0.7,0.2,0.9,0.5c0.1,0.1,0.1,0.2,0.1,0.4c0,0.1,0,0.3,0,0.4H47.2z M47.9,22c0-0.3-0.1-0.4-0.4-0.4
			c-0.2,0-0.3,0.1-0.3,0.4H47.9z"/>
		<path fill="#005FAC" d="M49.4,21.3v0.4h0c0.1-0.3,0.3-0.4,0.7-0.4v0.5h-0.3c-0.1,0-0.2,0.1-0.3,0.1c0,0.1-0.1,0.2-0.1,0.3
			c0,0,0,0.1,0,0.1v1h-0.6v-1.6c0,0,0-0.1,0-0.1c0-0.1,0-0.2,0-0.3H49.4z"/>
		<path fill="#005FAC" d="M52.1,23.3h-0.6v-2.9h1.2c0.6,0,1,0.3,1,0.7c0,0.4-0.2,0.6-0.6,0.7v0c0.3,0,0.5,0.2,0.5,0.6
			c0,0,0,0.1,0,0.1c0,0.3,0.1,0.6,0.2,0.7h-0.7C53,23,53,22.8,53,22.5c0-0.2-0.1-0.4-0.3-0.4h-0.6V23.3z M52.1,21.7h0.5
			c0.3,0,0.4-0.1,0.4-0.4c0-0.2-0.1-0.4-0.4-0.4h-0.5V21.7z"/>
		<path fill="#005FAC" d="M55.1,23.3c-0.7,0-1-0.4-1-1c0-0.7,0.4-1,1-1.1c0.7,0,1,0.4,1,1.1C56.1,23,55.7,23.3,55.1,23.3z
			 M55.1,22.9c0.3,0,0.4-0.2,0.4-0.6c0-0.4-0.1-0.7-0.4-0.7c-0.3,0-0.4,0.2-0.4,0.7C54.6,22.7,54.8,22.9,55.1,22.9z"/>
		<path fill="#005FAC" d="M56.5,20.4h0.6v1.1h0c0.1-0.2,0.3-0.3,0.5-0.3c0.6,0,0.9,0.4,0.9,1.1c0,0.7-0.3,1-0.9,1
			c-0.3,0-0.5-0.1-0.6-0.3c0,0,0,0.1,0,0.1c0,0.1,0,0.1,0,0.1h-0.6c0,0,0-0.1,0-0.2c0-0.1,0-0.2,0-0.2V20.4z M57.5,22.9
			c0.3,0,0.4-0.2,0.4-0.6c0-0.4-0.1-0.7-0.4-0.7c-0.3,0-0.4,0.2-0.4,0.7C57.1,22.7,57.2,22.9,57.5,22.9z"/>
		<path fill="#005FAC" d="M59.9,23.3c-0.7,0-1-0.4-1-1c0-0.7,0.4-1,1-1.1c0.7,0,1,0.4,1,1.1C60.9,23,60.5,23.3,59.9,23.3z
			 M59.9,22.9c0.3,0,0.4-0.2,0.4-0.6c0-0.4-0.1-0.7-0.4-0.7c-0.3,0-0.4,0.2-0.4,0.7C59.5,22.7,59.6,22.9,59.9,22.9z"/>
		<path fill="#005FAC" d="M61.5,21.3v-0.4l0.6-0.2v0.6h0.4v0.4h-0.4v0.9c0,0.2,0.1,0.4,0.2,0.3c0.1,0,0.1,0,0.2,0v0.4
			c-0.2,0-0.3,0-0.5,0c-0.4,0-0.6-0.2-0.6-0.6v-1h-0.4v-0.4H61.5z"/>
		<path fill="#005FAC" d="M63.9,21.8c0-0.1-0.1-0.2-0.3-0.2c-0.2,0-0.2,0.1-0.2,0.2c0,0.1,0.1,0.2,0.4,0.2c0.4,0,0.7,0.3,0.7,0.7
			c0,0.4-0.3,0.6-0.9,0.6c-0.6,0-0.9-0.2-0.9-0.6h0.6c0,0.1,0.1,0.2,0.3,0.2c0.2,0,0.3-0.1,0.3-0.2c0-0.1-0.1-0.2-0.4-0.2
			c-0.5-0.1-0.7-0.3-0.7-0.6c0-0.4,0.3-0.5,0.9-0.6c0.5,0,0.8,0.2,0.8,0.6H63.9z"/>
	</g>
</g>
</svg>
